<svg width="1016" height="600" viewBox="0 0 1016 600" fill="none" xmlns="http://www.w3.org/2000/svg">
<path d="M84.3798 504.834C79.794 508.319 76.2238 506.74 72.7254 505.91C69.5142 505.141 66.3646 504.034 63.133 503.419C58.701 502.569 57.829 501.257 59.3473 496.86C61.0914 491.827 62.8457 486.805 64.7232 481.393C63.41 480.88 62.302 480.276 61.1222 480.009C51.0989 477.724 42.2042 473.367 34.9817 465.916C30.9806 461.796 26.7845 457.839 23.1322 453.422C20.6803 450.449 18.2899 447.036 17.2229 443.418C15.8277 438.713 15.4994 433.64 17.3563 428.71C18.4643 425.789 19.1722 422.703 19.9416 419.659C20.7521 416.461 20.1263 413.715 18.3309 410.732C14.6376 404.592 16.2175 398.555 22.0037 394.004C25.6047 391.176 29.7494 389.597 34.2225 388.828C38.6237 388.07 43.0146 387.25 47.4364 386.615C50.2371 386.215 51.8581 384.739 52.2685 382.023C52.7712 378.712 54.1767 376.098 57.1313 374.294C59.4089 372.9 59.7167 371.015 58.3522 368.575C57.3776 366.833 56.3824 364.742 56.444 362.835C56.7312 354.277 51.735 347.287 49.7652 339.405C49.1702 337.027 46.5951 334.915 44.5125 333.193C40.9115 330.221 37.6901 327.177 35.1561 323.067C31.4525 317.06 26.8666 311.505 20.3315 308.215C12.5447 304.3 7.96909 297.053 2.19315 291.067C1.16722 290.012 0.849186 288.023 0.705557 286.414C0.336225 282.232 0.233632 278.02 0.0181885 273.612C1.66992 272.208 3.6397 270.537 5.24014 269.174C6.62513 271.757 8.4205 274.647 9.73368 277.743C10.3082 279.096 10.4313 281.146 9.8055 282.396C8.15376 285.666 9.02579 288.156 11.4265 290.37C14.2888 293.015 16.9562 296.1 20.2802 297.965C29.9341 303.346 37.9158 311.003 47.1286 316.917C51.7965 319.91 56.8851 322.257 61.8711 324.696C62.5585 325.035 64.4769 324.461 64.6308 323.948C65.0104 322.698 65.113 321.027 64.5693 319.889C63.6459 317.962 61.2453 316.404 61.0401 314.519C60.4245 308.85 60.1783 303.07 60.5374 297.381C60.7734 293.65 64.0666 291.898 67.5034 291.016C70.0169 290.37 72.5715 289.909 75.1055 289.356C83.1385 287.613 89.9096 295.075 87.4474 302.977C86.8421 304.925 86.0829 306.831 85.5904 308.81C85.139 310.593 85.4263 312.171 87.2832 312.469C89.8685 309.783 92.1769 307.2 94.7006 304.843C96.773 302.906 99.2455 302.475 101.933 303.797C109.115 307.344 116.368 310.726 123.478 314.406C126.945 316.199 127.14 318.116 124.545 321.017C123.56 322.114 122.442 323.21 121.159 323.897C114.48 327.474 108.776 332.804 101.041 334.557C97.1936 335.428 95.8702 337.857 95.8394 342.111C95.7881 347.502 95.9317 352.903 95.8702 358.295C95.8497 360.324 95.6137 362.384 95.2341 364.383C94.3929 368.903 94.5262 373.218 97.1936 377.205C100.251 381.777 99.502 387.26 100.702 392.272C103.4 403.537 104.796 414.924 104.58 426.486C104.447 433.906 104.17 441.348 103.452 448.727C103.113 452.161 101.954 455.656 100.466 458.792C98.7941 462.318 98.0144 465.701 98.8146 469.524C99.1531 471.154 99.1121 472.855 99.2763 474.515C99.5225 476.965 98.5376 478.431 96.0036 478.759C92.3308 479.241 88.6785 479.948 84.9954 480.214C80.6455 480.532 76.2032 483.976 75.0542 488.281C74.5823 490.064 74.0693 491.848 73.4332 493.569C72.1816 496.952 72.4997 498.264 75.4851 500.027C76.5931 500.683 77.9165 500.97 79.0553 501.585C80.5942 502.415 82.0407 503.399 84.3491 504.824L84.3798 504.834ZM94.3416 321.837C100.528 320.351 105.411 319.182 111.557 317.706C109.176 315.4 107.812 313.76 106.16 312.53C100.856 308.584 97.6553 309.568 95.3675 315.81C94.834 317.286 94.8135 318.946 94.3416 321.837Z" fill="#FDC500"/>
<path d="M807.112 231.066C812.242 235.607 817.381 240.127 822.491 244.688C830.288 251.657 837.028 259.55 842.753 268.303C844.497 270.968 844.353 273.489 843.491 276.687C841.706 283.288 840.916 290.155 839.747 296.92C837.643 309.045 834.894 320.904 828.759 331.83C820.654 346.272 809.061 356.798 794.493 364.373C790.41 366.494 786.891 367.202 783.659 363.102C782.869 362.097 781.669 361.431 780.705 360.56C777.996 358.09 775.011 357.157 771.482 358.643C770.979 358.858 770.363 358.787 769.85 358.992C760.32 362.651 760.443 360.806 754.739 354.492C744.418 343.074 737.77 330.026 735.379 314.498C733.605 302.957 734.805 291.959 737.144 280.807C738.898 272.444 740.263 264.008 742.099 255.665C742.54 253.646 743.833 251.534 745.321 250.069C748.214 247.24 751.527 244.831 754.667 242.259L754.503 242.433C756.544 241.592 758.576 240.731 760.627 239.901C767.152 237.277 773.564 234.325 780.233 232.132C789.076 229.221 798.135 227.253 807.276 231.261L807.112 231.076V231.066ZM766.024 340.348C766.024 343.546 767.758 345.636 770.866 346.815C769.214 344.693 767.563 342.582 765.911 340.46C765.295 336.822 764.587 333.193 764.085 329.545C763.654 326.377 765.08 324.122 768.096 323.077C774.97 320.689 781.864 318.28 788.809 322.974C789.548 323.477 790.523 323.63 791.395 323.948C791.805 324.553 792.133 325.25 792.646 325.762C798.422 331.502 798.74 333.152 794.524 340.091C793.303 342.111 791.426 343.74 789.835 345.534C788.963 346.518 788.05 347.461 787.158 348.435C794.144 345.647 797.458 340.02 799.489 333.439C799.746 332.609 799.931 331.318 799.489 330.774C797.232 327.987 795.622 324.286 791.241 324.102C790.841 323.497 790.564 322.739 790.03 322.298C783.403 316.876 770.384 317.173 764.085 322.913C763.295 323.63 762.464 324.635 762.289 325.629C761.304 331.061 761.51 336.279 766.003 340.368L766.024 340.348ZM830.534 271.327L830.729 271.491C828.308 267.216 824.245 266.407 820.09 267.35C809.913 269.666 801.346 274.873 795.888 283.923C792.554 289.448 791.118 295.413 794.627 301.911C798.494 309.076 812.57 314.693 820.398 307.959C822.511 306.145 824.676 304.392 826.82 302.619C827.333 302.106 827.846 301.604 828.359 301.092C829.149 300.077 829.97 299.083 830.729 298.047C834.443 293.025 836.823 287.521 836.433 281.146C836.176 276.902 834.791 273.212 830.524 271.316L830.534 271.327ZM827.764 321.755C831.17 318.465 832.442 314.611 830.616 311.997C828.184 308.522 825.291 311.054 822.583 311.741C822.224 311.833 821.875 311.966 821.526 312.1C816.202 314.057 810.785 315.113 805.101 313.934C803.829 313.668 802.536 313.391 801.244 313.319C797.53 313.094 796.832 314.601 798.812 318.434C798.976 318.926 799.13 319.428 799.294 319.92C800.105 324.727 802.906 327.238 807.83 327.31C808.692 327.464 809.543 327.607 810.405 327.761C816.048 330.795 822.85 329.165 826.81 323.846L827.764 321.765V321.755ZM754.246 279.096C755.087 281.299 755.867 284.825 757.652 287.746C761.202 293.568 767.994 296.213 773.482 294.552C777.391 293.374 778.253 291.959 777.258 287.982C775.739 281.894 772.815 276.523 768.476 272.013C766.014 269.451 762.997 266.458 759.366 267.831C755.293 269.369 754.964 273.868 754.256 279.096H754.246ZM780.859 325.045C777.966 325.957 775.852 326.572 773.769 327.3C771.256 328.181 770.179 330.16 771.082 332.548C772.302 335.776 773.882 338.902 775.585 341.926C776.58 343.699 778.458 344.253 780.428 343.464C784.685 341.752 788.245 339.2 789.743 334.639C790.092 333.552 790.123 331.625 789.476 331.092C786.686 328.817 783.588 326.921 780.859 325.055V325.045ZM794.011 257.203C790.256 257.049 786.676 260.236 785.578 264.716C784.49 269.154 786.132 273.838 789.333 275.437C791.785 276.656 794.77 276.185 797.068 274.196C800.413 271.316 801.726 266.13 800.136 262.04C799.048 259.232 797.15 257.418 794.001 257.203H794.011ZM788.276 289.735C783.28 294.87 781.33 300.815 781.454 307.416C781.484 308.861 783.105 311.187 784.336 311.433C785.557 311.679 787.855 310.142 788.533 308.799C791.241 303.387 792.267 297.648 789.938 291.754C789.702 291.149 789.076 290.688 788.276 289.745V289.735ZM801.449 244.124C801.357 243.571 801.49 242.648 801.09 242.146C800.013 240.793 798.792 238.753 797.479 238.63C796.165 238.507 794.575 240.28 793.272 241.408C792.79 241.818 792.698 242.751 792.564 243.468C792.082 246.112 792.062 248.788 794.503 250.489C795.375 251.104 797.109 251.268 798.074 250.817C800.72 249.587 801.305 246.994 801.459 244.114L801.449 244.124ZM752.399 293.978C758.935 303.941 768.804 305.499 777.453 297.299C767.675 301.481 759.489 301.071 752.399 293.978ZM756.288 257.028C751.63 257.162 749.65 259.498 748.019 262.122C745.105 266.796 745.003 276.964 747.793 282.509C746.264 272.803 747.578 264.193 756.288 257.018V257.028ZM753.959 303.808C753.836 303.941 753.723 304.064 753.6 304.197C754.503 304.761 755.334 305.509 756.308 305.847C758.74 306.708 761.294 307.221 763.674 308.184C765.254 308.82 766.609 310.009 768.065 310.941C766.998 312.325 765.983 313.75 764.854 315.072C764.434 315.564 763.756 315.82 763.192 316.179C764.946 316.128 766.701 315.779 767.758 314.734C769.091 313.412 770.651 311.546 770.702 309.875C770.774 307.467 768.127 307.17 766.157 306.698C762.094 305.735 758.032 304.771 753.969 303.797L753.959 303.808ZM773.349 263.855C779.002 271.491 782.767 279.659 782.028 289.438C785.475 282.119 781.402 270.22 773.349 263.855ZM746.316 295.813C741.812 294.603 741.258 294.819 739.75 297.689C737.534 301.891 738.108 305.519 741.463 308.574C740.027 298.222 740.294 297.371 746.316 295.813ZM757.119 317.727C752.902 316.148 748.727 314.58 744.674 313.053C748.183 317.665 750.912 318.711 757.119 317.727ZM755.98 310.706C754.995 309.804 754.421 308.84 753.805 308.83C753.189 308.809 752.543 309.722 751.907 310.224C752.42 310.859 752.851 311.854 753.487 312.018C754.031 312.161 754.831 311.351 755.98 310.695V310.706ZM777.606 352.729C777.719 352.381 777.842 352.032 777.955 351.684C776.745 351.263 775.544 350.843 774.334 350.423C774.221 350.761 774.108 351.1 773.985 351.438L777.596 352.729H777.606Z" fill="#FDC500"/>
<path d="M491.251 279.946C489.537 280.633 487.732 281.135 486.142 282.027C474.662 288.525 463.274 295.198 451.742 301.594C448.952 303.141 447.68 305.191 447.393 308.133C446.233 319.92 445.371 331.758 443.863 343.505C441.688 360.406 439.175 377.267 436.559 394.117C434.333 408.426 430.701 422.396 425.848 436.069C421.58 448.082 415.969 459.459 407.371 468.786C396.927 480.112 384.032 487.553 367.873 485.267C353.131 483.176 342.441 475.448 338.234 460.412C337.937 459.346 337.321 458.147 337.567 457.194C337.906 455.923 338.696 454.406 339.763 453.821C340.399 453.463 342.266 454.365 342.954 455.205C344.472 457.05 345.611 459.223 346.883 461.273C354.7 473.88 370.028 476.094 382.277 469.924C389.9 466.08 394.865 459.674 399.082 452.581C406.53 440.036 411.331 426.393 414.809 412.321C417.661 400.81 420.103 389.177 422.227 377.513C423.786 368.965 424.555 360.273 425.653 351.643C426.566 344.478 427.418 337.304 428.341 330.139C429.264 322.995 430.239 315.861 431.244 308.348C429.439 307.774 427.89 307.323 426.361 306.79C420.329 304.699 416.184 300.876 414.696 294.439C413.67 290.022 414.932 288.228 419.354 288.126C422.883 288.044 426.412 287.9 429.931 287.675C434.199 287.398 434.989 286.783 435.718 282.447C436.323 278.84 436.487 275.17 436.908 271.532C438.631 256.424 440.683 241.367 445.33 226.823C448.049 218.305 452.656 210.977 460.935 206.692C467.788 203.136 474.764 202.828 481.812 206.323C485.547 208.179 488.142 210.936 488.717 215.138C489.189 218.592 489.63 222.108 489.548 225.572C489.476 228.709 487.732 231.476 484.798 232.593C482.695 233.393 479.966 233.639 477.852 233.013C475.534 232.327 476.365 229.672 476.262 227.653C476.067 223.799 475.8 219.884 474.98 216.132C474.231 212.688 471.984 212.043 469.286 214.421C467.531 215.968 466.136 218.059 464.967 220.13C458.678 231.322 456.051 243.663 454.082 256.157C452.902 263.66 452.019 271.214 451.096 278.747C450.963 279.875 451.322 281.064 451.506 282.632C462.699 280.131 473.307 277.753 483.905 275.375C484.634 275.211 485.341 274.975 486.07 274.832C490.83 273.94 491.784 274.924 491.138 280.049L491.261 279.936L491.251 279.946Z" fill="#FDC500"/>
<path d="M630.212 304.997C639.609 295.71 648.412 286.68 655.398 276.082C657.03 273.602 658.538 271.04 659.933 268.416C662.775 263.086 663.637 257.951 658.332 253.369C656.588 251.862 655.439 249.854 657.337 247.517C659.122 245.333 661.462 245.549 663.349 246.85C667.463 249.679 671.772 252.447 675.188 256.024C679.867 260.923 680.164 267.114 676.389 272.987C673.793 277.015 670.736 280.859 667.35 284.241C659.605 292 651.551 299.462 643.559 306.965C642.205 308.235 640.512 309.158 638.296 310.726C641.343 313.073 643.2 314.498 645.047 315.933C649.735 319.572 654.496 323.118 659.112 326.859C668.099 334.136 668.171 345.175 663.78 354.738C660.189 362.559 654.188 368.462 647.93 373.997C640.523 380.547 632.243 385.897 622.661 388.869C620.363 389.587 618.014 390.14 615.675 390.766C608.37 392.703 602.307 391.247 597.167 385.221C594.592 382.207 590.97 379.962 587.534 377.841C578.741 372.408 576.813 365.152 582.271 354.902C586.344 347.246 592.345 341.127 598.552 335.233C605.282 328.837 612.238 322.677 619.07 316.384C620.148 315.39 621.092 314.262 622.333 312.94C620.394 311.044 618.599 309.25 616.772 307.487C606.985 298.047 606.77 286.762 611.263 275.119C615.921 263.055 624.395 253.595 634.367 245.6C640.43 240.731 650.966 243.263 654.721 250.007C655.85 252.026 655.091 254.138 652.895 254.927C652.208 255.173 651.428 255.347 650.71 255.276C644.975 254.753 640.502 257.49 636.88 261.323C629.884 268.733 625.031 277.415 622.815 287.5C621.451 293.732 622.764 298.888 627.873 302.906C628.591 303.48 629.248 304.136 630.212 304.997ZM607.283 377.103C613.633 376.918 619.194 375.904 623.933 372.808C629.35 369.272 634.572 365.357 639.527 361.195C644.862 356.706 648.617 350.874 651.428 344.54C654.28 338.113 653.634 334.782 648.402 330.2C645.211 327.402 641.641 325.004 638.05 322.708C632.459 319.131 631.638 319.244 627.155 323.979C616.526 335.192 606.667 347.02 598.993 360.509C598.172 361.944 597.321 363.43 596.859 364.998C594.992 371.271 597.198 374.971 603.589 376.457C605.026 376.795 606.503 376.959 607.293 377.103H607.283Z" fill="#FDC500"/>
<path d="M771.276 133.992C771.564 122.082 774.857 111.924 783.557 104.011C791.795 96.5189 801.551 93.854 812.467 95.1045C826.317 96.7034 837.377 103.673 846.364 113.851C854.828 123.434 859.701 134.812 860.614 147.675C861.445 159.503 858.552 170.245 850.242 178.998C847.728 181.642 844.609 183.877 841.419 185.66C837.018 188.11 833.755 187.228 830.698 183.19C826.092 177.112 821.66 170.911 817.166 164.751C816.838 164.3 816.571 163.808 816.243 163.357C810.549 155.301 805.573 155.752 801.254 164.73C800.043 167.241 799.017 169.845 797.756 172.325C795.252 177.225 792.462 177.809 788.707 173.945C777.771 162.691 771.595 149.346 771.287 133.981L771.276 133.992ZM798.176 155.29C797.961 150.822 795.991 147.173 792.123 144.702C787.086 141.494 782.069 144.036 781.946 149.961C781.843 154.716 783.854 158.611 787.937 161.245C790.061 162.609 792.4 163.203 794.801 161.953C797.427 160.589 798.186 158.181 798.176 155.29ZM812.57 112.795C812.991 114.917 813.073 116.045 813.452 117.059C814.263 119.212 815.535 121.087 818.059 121.344C820.521 121.6 822.357 120.267 823.588 118.289C825.661 114.948 826.143 111.33 824.45 107.701C822.675 103.909 818.541 103.13 815.904 106.318C814.232 108.337 813.421 111.063 812.57 112.785V112.795ZM803.203 116.864C803.244 112.406 799.848 107.917 795.714 106.953C791.856 106.051 789.097 108.204 789.025 112.139C788.953 116.126 792.195 120.677 796.011 121.948C799.951 123.26 803.172 120.985 803.203 116.864ZM845.163 155.864C847.554 154.901 849.595 154.429 851.206 153.343C853.874 151.529 854.027 148.597 851.965 146.076C849.236 142.724 842.763 141.617 839.162 143.883C836.043 145.85 835.366 149.387 838.126 151.846C840.095 153.599 842.773 154.563 845.153 155.875L845.163 155.864ZM843.019 172.438C843.122 168.615 840.188 164.29 836.566 162.906C832.216 161.245 828.461 163.839 828.882 168.42C829.262 172.571 831.508 175.718 835.356 177.419C839.357 179.193 842.906 176.794 843.019 172.448V172.438ZM836.443 133.213C840.814 133.284 845.358 129.83 846.313 125.72C847.154 122.112 845.297 119.519 841.603 119.15C837.459 118.74 832.545 122.041 831.303 126.069C830.082 130.046 832.319 133.151 836.443 133.213Z" fill="#FDC500"/>
<path d="M343.908 274.36C326.221 275.949 309.498 277.569 294.13 285.399C289.062 287.982 284.722 291.303 283.542 297.514C283.193 299.339 281.655 300.938 280.536 302.875C275.981 300.446 275.858 296.448 276.566 293.076C277.294 289.591 279.121 286.117 281.234 283.196C284.445 278.747 289.216 276 294.15 273.694C306.81 267.76 320.322 265.382 334.12 264.265C337.639 263.978 341.179 263.701 344.708 263.639C348.391 263.578 351.797 263.865 354.67 260.37C356.783 257.797 360.517 258.289 363.636 259.119C365.934 259.734 368.263 260.554 370.294 261.774C372.274 262.953 373.875 264.757 375.722 266.345C375.578 269.769 373.423 271.573 370.633 272.977C369.186 273.704 367.524 274.33 366.468 275.467C337.403 306.708 312.504 340.87 293.678 379.276C292.458 381.766 291.524 384.39 290.416 387.045C292.396 388.91 294.674 388.798 296.807 388.675C306.082 388.152 315.356 387.475 324.631 386.871C326.672 386.738 328.724 386.44 330.735 386.604C331.566 386.676 332.9 387.732 332.951 388.418C333.002 389.177 332.007 390.509 331.207 390.755C328.016 391.719 324.743 392.467 321.46 393.072C310.719 395.07 299.957 396.967 289.082 398.924C292.868 403.116 293.196 404.613 310.463 398.494C306.184 403.506 301.465 408.19 294.55 409.082C288.087 409.922 283.717 406.13 280.3 400.605C273.56 401.425 266.789 402.327 259.997 403.034C257.422 403.301 254.775 403.321 252.19 403.106C249.41 402.87 247.204 401.62 246.763 398.443C246.66 397.725 246.24 397.049 246.127 396.331C244.588 386.451 245.727 385.395 255.576 386.153C263.147 386.748 270.77 386.84 278.464 387.158C282.055 370.041 290.293 355.148 299.044 340.512C311.848 319.121 326.344 298.878 341.076 278.788C341.917 277.63 342.625 276.369 343.908 274.35V274.36Z" fill="#FDC500"/>
<path d="M566.718 355.261C568.657 353.959 570.257 352.883 571.888 351.796C574.617 354.513 573.571 356.778 572.288 359.166C568.616 366.043 564.891 372.9 561.475 379.911C559.854 383.232 558.88 386.871 557.649 390.376C556.653 393.195 554.796 394.65 551.719 394.291C548.508 393.912 545.286 393.225 543.665 390.14C543.121 389.095 543.757 387.291 544.147 385.917C547.379 374.499 551.083 363.184 553.832 351.653C555.72 343.761 557.043 335.623 556.489 327.392C556.356 325.486 555.833 323.6 555.258 320.422C552.057 323.856 549.585 326.265 547.389 328.909C535.335 343.474 526.163 359.771 518.715 377.082C517.176 380.67 515.739 384.298 514.252 387.906C511.01 395.767 505.521 394.363 499.745 390.827C497.858 389.669 498.268 387.68 498.894 385.784C500.915 379.624 503.264 373.526 504.752 367.232C507.717 354.625 510.23 341.906 512.836 329.217C513.164 327.618 512.877 325.896 512.877 323.087C511.072 324.655 509.912 325.619 508.794 326.634C507.696 327.638 506.814 329.012 505.542 329.616C504.424 330.149 502.905 329.862 501.571 329.934C501.633 328.725 501.233 327.208 501.818 326.357C504.742 322.062 507.758 317.798 511.082 313.811C513.462 310.962 515.227 311.003 518.335 312.971C519.433 313.658 520.479 314.539 521.69 314.929C528.204 317.06 528.482 320.381 527.517 326.306C526.481 332.691 524.85 338.984 523.495 345.319C523.383 345.841 523.383 346.385 523.218 348.096C524.727 346.005 525.681 344.816 526.501 343.535C532.513 334.126 538.679 324.84 546.528 316.814C547.051 316.281 547.564 315.749 548.118 315.246C554.735 309.189 560.675 309.137 567.374 315.113C569.6 317.101 570.349 319.654 570.37 322.626C570.421 332.312 569.036 341.813 567.118 351.274C566.872 352.483 566.861 353.744 566.728 355.261H566.718Z" fill="#FDC500"/>
<path d="M344.39 322.749C342.235 325.404 341.015 326.982 339.722 328.489C338.891 329.463 338.07 330.539 337.013 331.205C336.367 331.615 334.9 331.717 334.479 331.287C333.843 330.631 333.248 329.104 333.597 328.468C336.408 323.251 339.301 318.055 342.461 313.043C343.826 310.88 346.195 310.849 348.473 311.936C349.796 312.571 351.069 313.381 352.454 313.822C358.271 315.666 360.076 318.454 359.399 324.502C358.722 330.569 358.147 336.658 357.563 342.746C357.501 343.392 357.727 344.068 358.014 346.036C359.881 342.367 361.215 339.804 362.497 337.211C366.878 328.366 371.608 319.736 377.886 312.059C379.169 310.49 380.605 309.004 382.164 307.713C384.616 305.683 387.386 304.925 390.485 306.339C391.162 306.647 391.87 306.913 392.598 307.067C398.569 308.297 401.595 310.203 401.79 319.449C401.995 329.042 401.831 338.636 401.831 348.414C402.508 347.789 403.237 346.784 404.211 346.313C405.227 345.821 406.93 345.298 407.546 345.79C408.284 346.364 408.561 348.076 408.356 349.173C408.048 350.782 407.125 352.268 406.479 353.805C402.519 363.225 398.518 372.593 396.599 382.74C395.44 388.88 393.583 389.864 387.725 388.726C382.493 387.711 381.149 385.784 382.605 380.475C386.842 365.019 388.628 349.214 389.007 333.265C389.141 327.679 388.72 321.97 385.96 315.646C383.016 319.807 380.43 323.128 378.184 326.664C367.135 344.058 359.532 362.948 354.167 382.781C353.736 384.39 353.377 386.03 352.802 387.598C350.71 393.297 343.374 395.265 338.655 391.411C336.665 389.782 337.403 387.639 337.783 385.702C338.973 379.522 340.532 373.403 341.527 367.191C343.282 356.265 344.954 345.298 344.574 334.157C344.533 333.07 345.139 331.974 345.098 330.887C345.016 328.602 344.708 326.326 344.369 322.749H344.39Z" fill="#FDC500"/>
<path d="M513.359 56.7503C514.56 55.1514 515.996 53.6754 516.909 51.9228C520.982 44.1945 524.86 36.3638 528.892 28.6151C531.457 23.685 535.304 19.9439 540.239 17.4122C547.759 13.5583 557.689 17.7402 559.587 25.6324C559.998 27.3339 559.793 29.3223 559.372 31.0647C558.849 33.2069 557.135 34.8468 554.94 34.5701C553.637 34.4061 552.149 33.0019 551.37 31.7617C546.825 24.5562 540.341 24.0745 534.688 30.788C533.508 32.1819 532.657 33.9039 531.887 35.5848C521.002 59.2307 510.179 82.9074 499.284 106.553C494.534 116.854 489.743 127.145 484.818 137.354C482.13 142.929 481.915 148.392 484.541 153.999C488.327 162.065 485.783 168.779 480.037 174.785C475.287 179.756 469.891 183.467 462.71 183.866C453.569 184.379 447.351 178.926 446.233 171.495C444.12 157.422 451.004 144.815 464.659 140.326C470.024 138.563 473.348 135.693 475.913 130.65C487.516 107.763 499.52 85.0803 511.328 62.2954C512.262 60.5017 512.795 58.5133 513.524 56.6068L513.37 56.7401L513.359 56.7503ZM476.334 155.916C474.179 156.203 472.979 157.463 473.43 159.841C473.543 160.415 474.908 161.348 475.328 161.184C477.514 160.323 478.242 158.693 477.021 156.5C476.939 156.356 476.754 156.264 476.344 155.916H476.334ZM462.279 156.377C463.694 153.876 464.382 152.933 464.72 151.877C464.823 151.559 463.982 150.627 463.448 150.504C462.145 150.217 460.75 152.01 461.109 153.404C461.283 154.091 461.622 154.727 462.279 156.377ZM458.852 166.606C461.608 169.23 464.122 170.453 466.393 170.275C463.643 168.943 461.253 167.774 458.852 166.606Z" fill="#FDC500"/>
<path d="M774.959 46.7672C774.795 50.2931 775.503 51.2668 778.95 52.2507C786.614 54.4237 789.62 63.6586 784.583 69.7674C779.371 76.0812 774.139 82.3744 768.804 88.5857C764.115 94.0488 759.878 94.346 754.472 89.8259C752.184 87.9195 750.009 85.8491 747.567 84.1681C745.454 82.7229 743.146 81.4315 740.735 80.6217C735.174 78.7461 730.67 75.5482 728.054 70.3516C726.146 66.549 723.581 63.6278 720.206 61.1679C717.959 59.5382 715.856 57.6523 713.876 55.6946C710.224 52.0765 709.957 48.8889 713.209 44.871C717.313 39.8179 721.683 34.9801 725.91 30.0193C727.716 27.8976 729.347 25.6119 731.204 23.5415C734.579 19.7594 737.975 19.4826 741.935 22.6395C744.264 24.4947 746.48 26.4831 748.727 28.4408C750.522 30.009 752.451 30.9827 754.821 29.8348C757.642 28.4716 759.858 29.6195 761.951 31.403C765.49 34.4266 769.05 37.4195 772.528 40.5149C775.195 42.8826 775.144 42.9441 774.959 46.7877V46.7672ZM729.952 59.4357C729.962 69.0396 737.852 76.7679 747.485 76.6346C756.729 76.5116 764.331 68.6194 764.259 59.2307C764.187 49.9856 756.308 42.3291 746.921 42.3803C737.359 42.4316 729.932 49.8933 729.942 59.4357H729.952ZM770.097 42.2881C769.953 41.9703 769.84 41.1196 769.358 40.6789C766.896 38.465 764.434 36.21 761.725 34.3139C761.068 33.8629 759.088 34.3754 758.442 35.1031C757.806 35.8206 757.539 37.9012 758.073 38.4342C760.545 40.8839 763.202 43.2106 766.085 45.1682C767.665 46.2444 769.943 44.5943 770.097 42.2983V42.2881ZM733.512 30.501C734.343 31.608 734.815 32.3869 735.441 33.0224C736.344 33.9346 737.308 34.7956 738.334 35.5541C740.817 37.399 742.089 37.2453 743.895 35.0006C745.68 32.7867 745.618 31.4645 743.187 29.4248C741.555 28.0513 739.647 27.0059 737.544 25.6017C736.005 27.4671 734.784 28.9533 733.512 30.501Z" fill="#FDC500"/>
<path d="M663.124 442.998C663.236 454.016 658.415 462.841 651.038 470.303C645.129 476.278 638.05 480.737 630.079 483.627C617.029 488.363 605.785 481.331 604.759 467.525C603.856 455.482 608.421 445.417 616.865 437.032C622.61 431.323 629.504 427.265 637.045 424.518C654.26 418.255 663.862 430.708 663.124 442.988V442.998ZM616.967 460.053C617.634 462.411 618.239 466.305 619.819 469.76C622.836 476.34 632.1 478.513 637.978 474.413C646.75 468.294 652.218 453.391 649.776 442.762C648.545 437.412 645.703 433.507 640.338 432.195C634.736 430.821 629.679 432.307 625.688 436.674C620.035 442.854 617.952 450.429 616.957 460.063L616.967 460.053Z" fill="#FDC500"/>
<path d="M664.303 24.1667C666.519 10.9549 674.193 3.69819 686.022 0.0595703C686.258 0.91029 686.525 1.40227 686.412 1.53552C681.898 6.68084 680.092 12.7076 680.062 19.4929C680.041 23.1725 679.385 26.8521 678.943 31.2492C680.205 32.1102 681.898 33.1557 683.468 34.3549C687.582 37.522 691.942 40.4534 695.645 44.051C700.19 48.4686 699.739 52.097 694.999 56.3711C689.408 61.4242 682.637 63.3511 675.373 62.7874C660.21 61.6087 647.96 55.1411 639.866 41.8371C637.168 37.4093 636.132 32.5407 636.368 27.4159C636.614 21.9836 639.425 19.0317 644.842 19.3186C648.679 19.5236 652.485 20.6101 656.25 21.5223C658.733 22.1168 661.123 23.1008 664.303 24.1565V24.1667ZM667.012 27.3749C664.047 26.1757 661.718 25.0174 659.256 24.2692C654.321 22.783 649.571 20.1899 644.175 21.0201C642.667 21.2558 640.389 21.8811 640.04 22.8753C639.64 24.013 640.82 25.8682 641.631 27.2314C642.174 28.1436 643.18 28.8406 644.113 29.4248C648.597 32.2639 653.408 34.2011 658.805 34.0679C662.498 33.9756 666.191 33.6681 669.782 33.4631C670.172 33.7911 670.531 33.9756 670.726 34.2626C671.239 35.0313 671.731 35.8308 672.152 36.661C675.681 43.5795 681.088 48.4789 688.259 51.4C689.767 52.015 691.48 52.466 693.091 52.425C696.938 52.3225 698.21 49.9856 695.994 46.9209C694.496 44.8402 692.598 42.9236 690.536 41.3861C685.95 37.9422 681.149 34.7854 676.45 31.5157C675.537 26.0732 674.624 20.6613 673.639 14.8293C669.218 17.7402 668.079 22.1885 667.022 27.3646L667.012 27.3749Z" fill="#FDC500"/>
<path d="M742.53 463.272C746.634 462.974 750.348 462.698 754.072 462.431C754.267 462.841 754.472 463.241 754.667 463.651C753.425 464.83 752.338 466.254 750.912 467.136C748.716 468.499 746.377 469.801 743.925 470.559C740.766 471.543 738.847 473.285 738.334 476.514C740.868 476.975 743.31 477.416 745.803 477.867C743.515 486.139 731.389 487.912 722.832 484.119C724.905 480.44 729.183 477.59 727.962 472.404C718.482 470.867 708.521 473.716 697.933 470.108C700.18 468.027 701.575 466.664 703.053 465.383C711.865 457.685 720.739 450.06 729.47 442.27C731.953 440.056 734.313 437.565 736.169 434.829C738.806 430.944 742.479 428.618 746.541 426.762C747.557 426.301 749.281 426.055 749.978 426.609C750.676 427.162 750.902 428.915 750.655 429.981C748.511 438.99 746.213 447.969 743.977 456.958C743.495 458.895 743.084 460.853 742.53 463.272ZM730.865 462.739C732.435 457.829 733.964 453.104 734.323 447.098C727.829 452.561 722.135 457.358 715.733 462.739H730.865Z" fill="#FDC500"/>
<path d="M474.856 326.306C470.527 326.675 470.301 335.069 463.828 332.066C464.012 331.051 463.91 329.995 464.372 329.329C467.183 325.209 470.024 321.089 473.071 317.132C474.682 315.041 476.929 314.273 479.504 315.707C479.822 315.882 480.191 315.994 480.55 316.087C490.881 318.875 490.061 321.304 489.045 330.836C488.296 337.795 486.254 344.611 484.767 351.489C483.833 355.784 482.859 360.068 481.884 364.475C482.356 364.424 482.705 364.506 482.869 364.363C484.315 363.133 485.454 360.396 487.783 362.374C489.794 364.076 488.05 366.207 487.168 367.929C484.203 373.7 481.012 379.368 478.068 385.149C476.56 388.111 475.554 391.329 474.036 394.291C472.076 398.125 469.091 398.637 464.033 396.3C460.247 394.548 459.775 393.164 461.417 388.736C468.527 369.528 473.605 349.839 475.451 329.391C475.534 328.52 475.431 327.618 475.369 326.736C475.369 326.613 475.103 326.511 474.877 326.326L474.856 326.306Z" fill="#FDC500"/>
<path d="M267.917 184.574C276.556 193.347 285.194 202.131 294.386 211.469C279.87 224.035 265.701 235.76 250.887 247.025C254.745 225.921 260.685 205.585 266.307 185.168L267.917 184.574Z" fill="#FDC500"/>
<path d="M323.163 241.664C319.337 243.581 261.475 251.494 254.622 250.971C255.288 249.946 255.658 248.911 256.386 248.306C268.882 237.779 281.429 227.325 293.935 216.809C295.894 215.159 297.639 214.503 299.711 216.645C307.323 224.516 315.007 232.327 322.63 240.188C322.969 240.537 322.989 241.182 323.163 241.674V241.664Z" fill="#FDC500"/>
<path d="M298.644 512.552C295.063 514.274 291.473 515.996 287.902 517.718C287.482 517.841 287.061 517.953 286.63 518.076C277.007 518.63 267.374 520.219 257.761 518.445C253.596 517.677 249.482 516.457 245.481 515.042C243.644 514.397 241.931 512.982 240.577 511.527C238.402 509.18 238.371 506.228 240.761 504.086C242.926 502.138 245.481 500.375 248.168 499.33C261.711 494.102 275.653 493.385 289.739 496.655C292.735 497.352 295.741 498.746 298.285 500.488C302.471 503.327 302.737 506.136 299.967 510.451C299.475 511.23 298.952 511.988 298.449 512.747L298.623 512.562L298.644 512.552ZM282.383 506.351C276.546 511.845 266.645 512.398 259.813 507.109C261.393 511.117 263.998 512.808 269.815 512.48C274.76 512.203 280.105 512.091 282.383 506.351ZM277.551 502.261C273.304 500.437 270.246 500.58 265.927 502.261H277.551Z" fill="#FDC500"/>
<path d="M570.083 474.669C573.54 474.669 576.987 474.669 580.445 474.669C584.353 474.679 588.262 474.608 592.161 474.813C593.269 474.874 594.346 475.776 595.433 476.299C594.828 477.334 594.428 478.605 593.576 479.374C590.293 482.356 586.497 483.925 581.901 483.72C574.279 483.371 566.646 483.361 559.023 483.146C557.956 483.115 556.91 482.725 554.971 482.305C555.935 480.194 556.325 478.113 557.556 476.863C561.947 472.363 566.492 467.986 571.221 463.856C577.49 458.372 584.23 453.391 590.283 447.692C592.53 445.57 594.048 442.168 594.777 439.082C595.772 434.89 593.197 431.692 589.267 430.862C584.394 429.837 580.28 431.979 579.275 436.469C578.711 438.97 578.844 441.614 578.639 444.494C575.366 446.36 572.011 448.276 567.897 450.624C567.22 448.615 566.235 447.016 566.256 445.437C566.318 440.794 568.072 436.735 571.642 433.63C577.162 428.823 583.297 425.03 590.242 422.632C593.925 421.361 597.567 421.617 601.168 423.021C606.739 425.204 609.211 430.391 607.344 436.131C605.426 442.024 601.343 446.319 596.695 450.142C588.519 456.876 580.291 463.538 572.124 470.293C571.17 471.082 570.493 472.189 569.683 473.152C569.816 473.665 569.96 474.177 570.093 474.69L570.083 474.669Z" fill="#FDC500"/>
<path d="M670.726 475.315C679.631 477.888 688.751 473.818 697.759 477.918C693.758 482.643 689.654 485.452 684.022 485.349C676.779 485.216 669.536 485.032 662.293 484.745C660.374 484.673 658.476 484.171 655.511 483.699C657.122 481.188 658.066 479.486 659.225 477.939C664.211 471.307 671.013 466.705 677.435 461.652C682.668 457.532 687.653 453.063 692.465 448.451C694.127 446.862 695.256 444.494 696.066 442.28C697.687 437.863 695.604 434.009 691.213 432.605C686.781 431.19 682.452 432.902 681.098 437.032C680.185 439.81 679.98 442.813 679.354 446.36C677.179 447.672 674.593 449.455 671.803 450.839C669.382 452.038 667.874 451.044 667.638 448.307C667.104 442.188 669.792 437.309 674.481 433.855C678.943 430.565 683.817 427.757 688.772 425.245C693.604 422.796 698.733 422.406 703.75 425.215C708.244 427.726 710.47 431.928 708.829 436.776C707.669 440.189 705.946 443.756 703.473 446.288C699.082 450.787 693.932 454.539 689.121 458.618C683.457 463.425 677.805 468.232 672.183 473.091C671.659 473.542 671.382 474.29 670.726 475.315Z" fill="#FDC500"/>
<path d="M168.711 505.305C169.439 508.114 170.28 510.133 170.434 512.203C171.142 521.367 170.434 530.509 167.203 539.098C163.858 547.995 157.959 555.17 149.393 559.762C145.402 561.904 144.314 561.371 142.96 557.179C139.267 545.74 141.719 535.081 147.71 525.19C151.68 518.64 157.22 513.31 163.335 508.677C164.761 507.591 166.382 506.761 168.711 505.316V505.305Z" fill="#FDC500"/>
<path d="M462.874 187.116C468.239 184.328 473.123 182.411 477.308 179.49C487.701 172.233 489.558 164.792 486.378 152.677C484.736 146.404 485.023 141.412 487.783 135.662C494.79 121.077 501.182 106.205 507.881 91.4659C509.358 88.2065 511.051 85.0393 512.651 81.8312C513.052 82.0157 513.441 82.2002 513.842 82.3847C511.02 90.5946 508.23 98.8046 505.367 107.004C501.746 117.367 498.289 127.791 494.308 138.02C492.297 143.196 492.554 147.531 495.57 152.215C498.196 156.285 499.684 160.928 499.55 165.95C499.253 177.153 489.548 187.853 478.375 189.155C473.205 189.75 468.096 189.729 462.874 187.126V187.116Z" fill="#FDC500"/>
<path d="M213.862 264.275C214.559 266.478 215.206 268.508 215.934 270.814C212.374 272.157 209.317 271.87 205.818 270.158C207.08 267.678 208.199 265.464 209.163 263.578C206.116 260.206 202.792 257.428 200.689 253.923C198.688 250.592 197.97 246.492 196.329 241.664C194.8 244.698 193.836 246.594 192.522 249.187C189.629 246.963 187.095 245.016 183.843 242.515C187.157 240.916 189.527 239.758 191.876 238.63C191.096 235.473 188.768 235.361 186.552 235.063C178.088 233.946 169.819 235.217 161.673 237.318C148.633 240.68 136.292 245.815 124.483 252.272C122.657 253.267 120.913 254.907 117.794 254.251C118.789 253.195 119.261 252.385 119.959 251.996C134.999 243.642 150.593 236.703 167.634 233.516C176.682 231.824 185.71 231.199 195.077 235.166C195.836 232.255 196.462 229.846 197.17 227.14C201.386 228.114 203.715 231.056 206.578 234.53C203.602 235.904 201.027 237.082 198.247 238.364C199.755 243.417 201.048 248.234 202.659 252.939C203.479 255.337 204.916 257.5 208.517 257.818C207.829 255.501 207.296 253.677 206.495 250.981C210.117 251.247 213.082 251.453 217.032 251.739C215.647 254.968 214.672 257.223 213.718 259.447C218.796 262.215 228.491 261.272 236.237 257.131C234.503 255.183 232.872 253.359 230.995 251.258C233.693 248.48 236.822 248.111 240.423 248.05V255.952C243.254 255.163 245.747 254.476 248.856 253.615C247.83 257.818 242.936 256.618 241.951 260.206C243.49 261.897 245.173 263.752 247.081 265.853C244.044 268.518 240.761 268.651 236.822 269.553C237.13 266.581 237.366 264.306 237.673 261.282C229.794 262.266 222.223 263.219 213.862 264.265V264.275Z" fill="#FDC500"/>
<path d="M553.596 57.4371C553.647 64.7143 549.575 70.3926 542.393 73.0575C535.94 75.4457 529.743 73.9492 525.199 68.8039C522.541 65.8008 521.362 62.5619 523.526 58.6465C525.229 55.5614 526.604 52.302 528.153 49.1348C530.903 43.4975 536.915 40.9454 542.947 42.8211C549.739 44.9427 553.535 50.1496 553.586 57.4371H553.596Z" fill="#FDC500"/>
<path d="M726.505 371.783C726.485 384.544 716.246 394.917 703.535 395.04C690.741 395.163 680.01 384.472 680.072 371.65C680.133 359.033 690.659 348.64 703.319 348.691C716 348.742 726.526 359.227 726.505 371.783ZM721.581 373.218C720.206 368.739 719.16 364.844 717.764 361.072C717.364 359.996 716.072 359.135 714.994 358.469C712.83 357.126 710.511 356.03 708.285 354.769C704.232 352.473 692.024 356.101 689.91 360.232C688.751 362.507 687.479 364.742 686.402 367.058C685.868 368.206 685.14 369.621 685.386 370.717C686.268 374.633 687.335 378.538 688.71 382.31C689.48 384.431 700.159 390.294 702.345 389.802C706.264 388.921 710.727 388.439 713.784 386.194C718.052 383.058 719.488 377.513 721.581 373.218Z" fill="#FDC500"/>
<path d="M136.353 556.472C120.277 548.395 113.403 517.318 122.349 505.695C124.278 506.781 126.627 507.591 128.289 509.139C132.352 512.921 136.168 516.99 139.954 521.069C141.524 522.771 142.396 524.769 140.857 527.127C135.902 534.722 135.768 543.178 136.569 551.777C136.692 553.058 136.835 554.34 136.938 555.621C136.948 555.764 136.743 555.928 136.363 556.472H136.353Z" fill="#FDC500"/>
<path d="M272.339 182.554C277.264 181.591 317.582 184.399 323.923 186.132C323.071 187.218 322.497 188.345 321.594 189.063C314.505 194.772 307.385 200.45 300.193 206.036C296.849 208.64 296.346 208.65 293.617 205.872C287.102 199.251 280.69 192.527 274.288 185.783C273.468 184.922 273.027 183.713 272.339 182.554Z" fill="#FDC500"/>
<path d="M131.306 269.769C128.402 268.272 125.735 266.888 123.067 265.515C123.262 265.095 123.468 264.685 123.662 264.265C126.484 265.453 129.295 266.642 132.239 267.872C135.666 265.536 135.943 260.431 140.59 258.719C142.396 263.998 147.31 265.638 151.639 267.616C155.948 269.574 159.908 273.653 165.664 271.132C167.213 275.59 162.678 278.717 163.479 283.288C166.249 284.682 169.306 286.219 172.363 287.757C168.28 288.915 166.002 284.907 162.094 284.784C160.001 287.88 157.887 291.026 154.953 295.372C153.968 290.288 150.706 288.935 147.71 287.357C145.084 285.973 142.324 284.836 139.626 283.575C136.456 282.089 133.357 280.193 129.695 282.509C127.602 277.835 131.439 274.381 131.306 269.779V269.769Z" fill="#FDC500"/>
<path d="M200.781 539.447C195.908 556.441 167.818 569.243 154.348 564.077C155.025 563.206 155.466 562.181 156.236 561.709C163.509 557.271 168.711 551.152 171.06 542.942C172.496 537.94 175.872 536.126 180.56 536.341C186.295 536.618 192.009 537.212 197.724 537.817C198.709 537.92 199.601 538.791 200.781 539.447Z" fill="#FDC500"/>
<path d="M300.06 211.469C309.088 203.904 317.531 196.822 326.375 189.411C328.878 194.065 327.585 198.154 327.688 202.059C327.79 205.954 327.585 209.859 327.493 213.765C327.401 217.854 327.37 221.944 327.134 226.023C326.918 229.846 327.554 233.782 325.769 238.251C316.598 229.734 308.801 220.704 300.06 211.458V211.469Z" fill="#FDC500"/>
<path d="M317.377 543.629C318.629 545.504 319.439 546.991 320.506 548.272C323.964 552.433 328.529 554.258 333.864 553.909C344.246 553.243 353.603 550.281 359.953 541.364C363.77 543.987 364.97 547.308 363.595 551.367C362.343 555.057 359.912 557.814 356.424 559.557C346.914 564.302 336.819 565.173 326.488 563.585C322.589 562.99 319.111 561.094 316.372 558.06C312.689 553.971 312.617 550.025 317.367 543.629H317.377Z" fill="#FDC500"/>
<path d="M133.85 563.441C128.72 562.693 124.032 560.469 119.692 557.825C107.956 550.64 101.595 539.457 97.6758 526.686C96.5063 522.894 97.6245 521.397 101.708 521.777C105.35 522.115 108.961 523.047 112.531 523.949C114.532 524.452 115.404 526.051 115.547 528.152C116.358 539.939 122.79 548.959 130.198 557.476C131.613 559.106 133.173 560.612 134.671 562.181L133.85 563.452V563.441Z" fill="#FDC500"/>
<path d="M758.606 232.245C757.375 228.944 756.154 225.634 754.903 222.333C753.354 218.223 753.477 217.536 757.098 214.851C759.304 213.211 761.684 211.807 764.577 209.911C766.65 213.098 768.486 215.927 770.753 219.433C771.687 216.317 770.517 214.144 770.189 211.93C769.584 207.902 769.912 207.236 773.585 205.401C773.913 205.237 774.262 205.093 774.6 204.94C782.674 201.25 782.869 201.342 785.896 209.777C786.645 211.879 787.445 213.959 788.317 216.009C789.333 218.408 788.625 219.955 786.163 220.734C784.039 221.401 781.936 222.262 779.761 222.661C771.923 224.106 765.706 229.119 758.596 232.132L758.617 232.245H758.606Z" fill="#FDC500"/>
<path d="M321.614 510.932C320.24 510.676 317.582 510.543 315.182 509.682C310.165 507.878 309.119 503.727 312.494 499.576C315.931 495.353 320.845 493.447 325.831 491.96C331.022 490.423 336.398 489.859 341.753 491.284C344.513 492.012 347.201 493.139 347.847 496.296C348.473 499.371 346.729 501.656 344.503 503.481C338.214 508.647 330.817 510.666 321.604 510.932H321.614ZM319.285 500.201C322.384 504.516 325.954 503.891 329.257 503.235C332.746 502.538 336.357 501.595 337.752 496.46C332.099 501.359 326.539 503.071 319.285 500.201Z" fill="#FDC500"/>
<path d="M152.511 569.776C154.286 569.642 155.384 569.376 156.441 569.509C164.022 570.411 171.286 568.72 178.252 566.209C182.171 564.804 185.762 562.252 189.188 559.772C191.712 557.947 193.548 557.722 196.072 559.7C199.252 562.191 202.925 564.077 204.967 567.756C196.308 579.195 160.668 580.978 152.522 569.776H152.511Z" fill="#FDC500"/>
<path d="M299.731 556.953C301.742 561.238 301.322 564.487 299.506 567.418C297.002 571.446 293.555 574.654 289.021 576.274C280.188 579.42 271.129 579.984 262.121 577.33C259.392 576.53 256.745 574.767 254.622 572.84C252.498 570.913 251.954 568.136 253.791 564.784C270.575 571.825 285.594 568.218 299.742 556.953H299.731Z" fill="#FDC500"/>
<path d="M754.656 242.259C752.943 242.884 751.23 243.509 748.275 244.585C749.609 242.771 750.132 241.715 750.953 240.998C759.848 233.352 770.281 228.442 781.341 225.07C802.321 218.674 803.316 220.519 817.351 230.83C827.292 238.138 835.438 247.301 841.491 258.176C842.363 259.744 843.05 261.405 844.117 263.629C841.234 263.311 840.588 261.384 839.552 260.083C832.36 251.053 824.542 242.648 815.237 235.76C812.744 233.905 809.831 232.624 807.102 231.076L807.266 231.261C802.557 225.654 796.391 226.32 790.277 227.581C779.073 229.887 768.476 233.946 758.473 239.481C757.037 240.27 755.806 241.439 754.482 242.433L754.646 242.259H754.656Z" fill="#FDC500"/>
<path d="M270.257 566.311C264.245 567.449 259.433 565.399 254.858 562.57C254.221 562.17 253.811 561.012 253.729 560.161C252.765 549.358 253.298 538.688 257.197 528.418C257.433 527.793 258.069 527.322 259.177 525.999C260.582 533.389 261.434 540.093 263.219 546.55C265.014 553.079 267.733 559.352 270.246 566.321L270.257 566.311Z" fill="#FDC500"/>
<path d="M290.16 560.469C284.712 564.764 279.911 566.178 274.155 565.184C272.298 552.618 273.929 540.328 278.105 528.152C280.947 539.406 284.466 550.209 290.16 560.469Z" fill="#FDC500"/>
<path d="M598.172 43.969C589.308 43.9998 582.086 37.276 582.045 28.9738C581.994 19.7696 588.642 12.4001 597.126 12.2156C606.072 12.0209 613.838 19.0727 613.838 27.3749C613.838 37.0915 607.365 43.9485 598.172 43.969ZM597.813 16.4385C591.247 16.418 586.025 21.4916 585.943 27.9591C585.872 34.6624 591.35 40.3304 597.803 40.2279C604.246 40.1254 609.909 34.8468 610.083 28.8098C610.268 21.9426 604.851 16.4692 597.813 16.4487V16.4385Z" fill="#FDC500"/>
<path d="M269.149 557.712C264.788 546.242 261.803 534.496 261.988 521.5H275.797C273.94 533.646 272.103 545.586 270.277 557.527C269.898 557.589 269.528 557.65 269.149 557.722V557.712Z" fill="#FDC500"/>
<path d="M491.117 280.059C493.959 281.31 497.047 282.201 499.581 283.903C502.844 286.096 503.254 288.669 500.617 291.385C497.56 294.542 494.175 297.617 490.399 299.79C485.013 302.895 479.463 301.204 476.406 296.192C481.299 290.832 486.265 285.399 491.23 279.957L491.107 280.059H491.117Z" fill="#FDC500"/>
<path d="M382.913 214.738C384.934 214.554 386.966 214.236 388.987 214.216C395.83 214.144 401.677 218.449 403.596 224.844C405.555 231.384 403.226 238.036 397.604 241.941C392.167 245.723 384.78 245.415 379.517 241.193C378.235 240.168 376.973 239.102 375.701 238.056L375.875 238.241C375.691 237.533 375.557 236.816 375.321 236.129C372.203 227.14 373.885 221.677 381.497 216.03C382.072 215.599 382.564 215.066 383.098 214.574L382.923 214.728L382.913 214.738ZM381.261 236.888L381.056 236.673C385.837 242.023 391.644 242.248 395.778 237.246C396.866 236.201 397.943 235.145 399.03 234.1C399.369 231.619 400.221 229.067 399.933 226.659C399.431 222.333 395.317 218.777 390.905 218.069C386.268 217.321 382.616 219.125 379.959 223.481L380.133 223.245C376.481 228.176 376.84 232.47 381.261 236.898V236.888Z" fill="#FDC500"/>
<path d="M343.62 507.898C346.031 512.08 347.898 516.057 349.407 520.516C351.735 527.393 351.54 534.353 352.351 541.271C352.956 546.386 352.484 546.693 346.503 548.436C346.124 547.288 345.529 546.15 345.405 544.961C344.657 538.155 344.041 531.339 343.313 524.523C343.22 523.683 342.83 522.842 342.451 522.074C341.312 519.757 339.917 517.554 338.952 515.176C336.942 510.215 337.208 509.856 343.61 507.898H343.62Z" fill="#FDC500"/>
<path d="M336.798 550.609C331.125 552.331 329.965 552.013 328.252 547.903C325.072 540.277 321.871 532.631 320.547 524.4C320.229 522.412 320.352 520.342 320.383 518.302C320.476 512.593 321.132 512.142 327.329 513.597C327.595 514.735 327.749 516.016 328.201 517.205C329.699 521.172 326.877 525.343 329.329 529.464C331.463 533.061 332.52 537.315 333.915 541.333C334.982 544.397 335.834 547.524 336.788 550.619L336.798 550.609Z" fill="#FDC500"/>
<path d="M343.579 547.934C343.107 548.508 342.276 549.522 341.445 550.537C340.532 549.789 339.096 549.205 338.809 548.262C336.613 541.077 332.417 534.548 332.233 526.686C332.151 523.078 330.837 519.522 330.212 515.914C329.873 513.936 330.253 512.142 332.653 511.67C334.808 511.25 335.7 512.747 336.254 514.376C337.906 519.194 339.876 523.96 340.932 528.91C342.205 534.865 342.646 541.005 343.569 547.934H343.579Z" fill="#FDC500"/>
<path d="M245.522 517.953C250.118 519.153 253.616 520.065 257.299 521.028C255.606 526.901 253.75 532.118 252.662 537.479C251.616 542.635 251.369 547.954 250.61 554.575C246.773 549.656 246.332 544.9 245.337 540.421C243.716 533.164 243.593 525.917 245.532 517.943L245.522 517.953Z" fill="#FDC500"/>
<path d="M813.801 222.21C816.643 219.33 819.536 216.481 822.326 213.539C825.148 210.556 825.62 210.454 828.779 212.791C828.933 212.904 829.067 213.027 829.21 213.139C836.587 218.869 836.73 219.966 831.026 227.192C827.607 231.517 823.66 231.865 819.187 228.237C817.074 226.515 814.334 225.275 813.975 222.057L813.811 222.221L813.801 222.21Z" fill="#FDC500"/>
<path d="M286.63 518.076C287.061 517.953 287.482 517.841 287.902 517.718C289.318 517.718 290.734 517.718 292.386 517.718C291.339 529.361 290.344 540.503 289.349 551.634C283.532 542.255 281.521 531.821 280.3 520.946C282.66 519.88 284.64 518.978 286.63 518.076Z" fill="#FDC500"/>
<path d="M353.244 520.506C350.607 515.616 348.36 511.834 346.514 507.858C345.354 505.357 345.816 504.875 350.279 501.492C353.674 507.314 359.409 511.927 359.635 519.183C360.076 533.779 359.102 538.094 355.839 541.312C353.633 537.879 352.146 523.908 353.244 520.506Z" fill="#FDC500"/>
<path d="M293.248 558.173C291.134 545.566 292.109 533.851 295.782 522.186C296.643 525.579 297.423 528.982 298.367 532.354C299.516 536.454 300.562 540.626 302.122 544.572C303.22 547.349 303.096 549.584 301.168 551.757C299.116 554.073 297.495 556.892 293.248 558.173Z" fill="#FDC500"/>
<path d="M839.654 224.322C841.881 228.053 844.066 231.209 845.615 234.643C846.097 235.719 845.276 237.923 844.343 238.989C842.291 241.326 839.788 243.263 836.956 245.825C833.14 243.899 830.534 240.209 828.01 236.488C827.62 235.904 827.682 234.377 828.154 233.946C831.621 230.758 834.925 227.325 839.654 224.322Z" fill="#FDC500"/>
<path d="M312.822 511.496C317.839 512.46 318.003 512.572 318.208 516.477C318.311 518.517 318.362 520.577 318.198 522.607C318.044 524.421 317.562 526.194 317.193 528.131C320.64 533.01 325.01 544.398 325.051 548.754C315.633 542.952 307.292 527.434 312.832 511.486L312.822 511.496Z" fill="#FDC500"/>
<path d="M238.853 514.243C241.479 514.92 243.213 516.303 242.762 519.286C240.936 531.37 242.598 543.014 246.958 554.35C247.112 554.76 246.814 555.334 246.712 555.898C237.181 549.82 232.923 527.219 238.853 514.243Z" fill="#FDC500"/>
<path d="M758.586 232.132C752.738 236.457 746.9 240.783 741.053 245.108C735.246 242.054 735.215 239.491 741.145 233.813C742.581 234.766 744.069 235.75 746.152 237.123C745.351 234.069 743.946 231.466 744.254 229.078C744.592 226.433 746.798 224.281 749.835 223.01C752.759 226.085 755.672 229.139 758.596 232.214C758.606 232.245 758.596 232.132 758.596 232.132H758.586Z" fill="#FDC500"/>
<path d="M813.965 222.046C807.409 223.399 804.065 220.119 805.983 214.154C807.009 210.977 808.076 207.81 809.246 204.683C810.539 201.219 811.411 200.891 814.57 202.439C815.566 202.931 816.54 203.494 817.464 204.099C820.459 206.067 820.695 206.754 819.259 210.044C817.484 214.123 815.627 218.151 813.801 222.2L813.965 222.036V222.046Z" fill="#FDC500"/>
<path d="M298.47 512.736C299.783 512.091 301.106 511.435 302.399 510.799C307.959 518.312 309.283 535.716 304.687 543.393C303.999 542.44 303.076 541.702 302.871 540.8C301.147 533.379 299.434 525.948 298.018 518.476C297.669 516.611 298.408 514.54 298.644 512.552L298.47 512.736Z" fill="#FDC500"/>
<path d="M800.033 208.998C800.033 210.854 800.013 212.709 800.033 214.554C800.074 217.577 798.433 218.797 795.581 219.074C791.395 219.484 790.338 218.684 789.989 214.41C789.692 210.71 789.404 207.02 789.158 203.32C789.025 201.414 789.835 199.948 791.795 199.682C794.093 199.374 796.442 199.282 798.751 199.395C799.13 199.415 799.674 200.932 799.725 201.772C799.859 204.171 799.777 206.59 799.777 208.998C799.869 208.998 799.951 208.998 800.043 208.998H800.033Z" fill="#FDC500"/>
<path d="M190.542 520.106C189.763 523.058 189.363 525.805 188.296 528.275C186.798 531.76 178.837 534.332 175.697 532.6C175.246 532.354 174.835 531.893 174.61 531.432C173.009 528.162 175.369 521.889 178.713 520.413C181.514 519.173 185.69 518.968 190.532 520.116L190.542 520.106Z" fill="#FDC500"/>
<path d="M144.93 519.88C136.692 513.116 135.625 510.276 143.494 500.355C147.741 502.179 149.516 506.105 151.157 509.948C151.619 511.025 151.085 512.982 150.316 514.048C148.839 516.108 146.869 517.83 144.93 519.88Z" fill="#FDC500"/>
<path d="M833.037 334.3C834.484 339.251 834.935 344.406 833.119 349.316C831.078 354.81 825.261 356.204 822.214 352.227C821.383 351.14 820.859 348.742 821.485 347.789C824.594 343.033 828.123 338.564 831.508 333.983L833.037 334.3Z" fill="#FDC500"/>
<path d="M732.24 314.672C733.779 320.34 735.492 325.967 736.723 331.707C736.97 332.855 735.646 335.049 734.497 335.602C733.051 336.299 730.783 336.371 729.296 335.715C726.567 334.526 725.192 331.922 725.274 328.909C725.428 323.569 727.377 318.885 730.506 314.703C731.081 314.693 731.666 314.672 732.24 314.662V314.672Z" fill="#FDC500"/>
<path d="M848.764 241.367C854.571 248.08 852.93 250.899 844.907 255.921C841.952 254.804 840.926 251.862 839.603 249.372C839.193 248.603 839.716 246.615 840.444 246.123C843.122 244.298 846.066 242.874 848.764 241.377V241.367Z" fill="#FDC500"/>
<path d="M782.254 366.822C774.816 370.83 770.466 369.867 765.798 363.44C769.799 357.137 779.022 359.494 782.254 366.822Z" fill="#FDC500"/>
<path d="M610.566 3.75969C612.494 7.79805 613.623 11.3034 610.873 15.2598C607.683 13.7121 604.595 12.2156 601.189 10.5552C602.327 5.88137 606.154 4.9384 610.566 3.75969Z" fill="#FDC500"/>
<path d="M616.003 28.3383C614.905 24.6997 613.92 21.3891 612.864 17.9042C616.485 15.9363 619.553 17.4122 622.425 18.9497C623.154 19.3391 623.759 21.4096 623.369 22.168C621.923 24.9457 620.25 27.7336 616.003 28.3486V28.3383Z" fill="#FDC500"/>
<path d="M580.28 25.2122C575.715 23.2545 574.535 19.7491 573.519 15.9158C577.203 12.8306 580.875 13.8453 585.307 14.8293C584.302 16.7152 583.44 18.2014 582.702 19.7389C581.912 21.3686 581.234 23.0393 580.28 25.2122Z" fill="#FDC500"/>
<path d="M575.397 29.3428C576.761 28.9123 578.116 28.4818 579.737 27.9693C580.855 31.608 581.912 35.0313 583.03 38.6495C578.69 39.9307 575.253 38.7827 571.406 36.3023C572.894 33.7399 574.227 31.444 575.561 29.1583L575.387 29.3428H575.397Z" fill="#FDC500"/>
<path d="M587.4 13.2099C586.313 8.91526 586.877 5.37913 589.842 2.171C594.11 3.05247 596.562 5.70712 598.234 9.96072C594.551 11.0677 591.104 12.1029 587.4 13.2099Z" fill="#FDC500"/>
<path d="M585.502 52.2815C582.589 48.6839 583.389 45.076 584.62 40.8121C588.2 42.6776 591.33 44.3175 594.715 46.0805C592.715 50.1906 589.596 51.8408 585.513 52.2815H585.502Z" fill="#FDC500"/>
<path d="M608.411 43.0261C609.704 47.3822 608.729 50.8055 606.134 54.1572C601.897 53.2552 599.198 50.9388 597.742 46.4802C601.332 45.3117 604.708 44.2253 608.411 43.0261Z" fill="#FDC500"/>
<path d="M610.771 41.1196C612.556 37.645 614.043 34.7341 615.634 31.6182C619.891 32.4997 621.04 35.8103 621.851 39.2029C622.025 39.9409 621.163 41.5604 620.476 41.7654C617.367 42.6981 614.115 43.6923 610.771 41.1196Z" fill="#FDC500"/>
<path d="M375.691 241.029C372.131 243.161 368.838 242.002 365.339 239.983C365.791 235.863 367.606 233.024 371.3 231.363C372.9 233.782 374.378 236.006 375.855 238.23L375.691 238.056V241.029Z" fill="#FDC500"/>
<path d="M378.399 242.935C381.692 244.196 384.585 245.303 387.797 246.522C386.966 251.053 383.765 252.58 379.989 253.533C376.871 249.013 376.686 247.855 378.399 242.925V242.935Z" fill="#FDC500"/>
<path d="M402.026 217.916C407.084 216.112 407.658 216.173 412.583 218.756C412.337 222.825 410.511 225.746 406.253 227.397C404.827 224.188 403.503 221.216 402.026 217.905V217.916Z" fill="#FDC500"/>
<path d="M402.631 240.116C403.863 236.826 405.012 233.772 406.232 230.512C410.757 231.271 411.926 234.756 413.609 238.159C410.213 241.07 406.899 242.105 402.631 240.116Z" fill="#FDC500"/>
<path d="M364.539 220.232C367.955 217.506 371.218 217.055 375.434 218.244C374.234 221.626 373.116 224.803 371.915 228.186C367.309 227.407 366.027 224.014 364.539 220.242V220.232Z" fill="#FDC500"/>
<path d="M399.759 215.784C396.384 214.482 393.347 213.303 390.105 212.053C390.413 211.11 390.474 210.341 390.864 209.818C393.46 206.416 396.825 204.612 398.548 205.606C400.477 206.713 401.154 211.376 399.759 215.784Z" fill="#FDC500"/>
<path d="M383.088 214.585C381.21 215.077 379.333 215.568 377.24 216.101C375.568 212.258 376.317 208.957 378.297 205.616C382.534 206.159 385.273 208.086 387.222 211.694C385.55 212.873 384.247 213.795 382.923 214.718L383.088 214.574V214.585Z" fill="#FDC500"/>
<path d="M400.59 242.207C402.149 247.547 402.088 248.132 399.667 252.898C395.686 252.836 393.039 250.745 390.813 246.738C394.034 245.241 397.081 243.837 400.59 242.207Z" fill="#FDC500"/>
<path d="M854.941 260.513C854.971 263.27 852.878 265.576 850.283 265.638C848.385 265.689 846.128 262.696 846.025 259.98C845.943 257.838 848.518 255.901 851.565 255.819C853.709 255.757 854.91 257.428 854.941 260.513Z" fill="#FDC500"/>
<path d="M513.503 56.6171C512.426 56.8836 511.349 57.2013 510.251 57.4166C506.116 58.216 505.501 57.8368 503.316 53.2347C507.717 50.3648 509.235 50.5595 511.913 54.3929C512.436 55.1514 512.857 55.9816 513.339 56.7606C513.349 56.7503 513.503 56.6171 513.503 56.6171Z" fill="#FDC500"/>
<path d="M507.532 43.3233C513.339 40.8941 513.944 41.1094 516.765 46.3879C512.015 49.6781 510.815 49.3193 507.532 43.3233Z" fill="#FDC500"/>
<path d="M512.272 34.3139C517.268 31.6182 518.058 31.8642 521.095 37.03C516.735 40.7199 514.611 40.0639 512.272 34.3139Z" fill="#FDC500"/>
<path d="M537.192 34.6521C543.275 32.3869 543.829 32.5817 546.507 37.522C542.147 41.1914 540.608 40.7506 537.192 34.6521Z" fill="#FDC500"/>
<path d="M720.627 351.54C724.453 350.649 726.782 350.105 729.357 349.501C730.486 353.518 728.957 355.681 725.982 358.008C724.433 356.132 723.017 354.42 720.627 351.54Z" fill="#FDC500"/>
<path d="M526.071 27.6209C520.941 31.0135 519.782 30.6445 516.694 24.9764C521.7 22.1988 522.634 22.4345 526.071 27.6209Z" fill="#FDC500"/>
<path d="M724.217 398.812C721.786 397.653 719.611 396.618 716.431 395.111C718.872 392.969 720.524 391.524 722.258 390.007C725.182 392.611 725.736 395.142 724.217 398.812Z" fill="#FDC500"/>
<path d="M709.629 346.21C710.049 342.295 712.44 341.014 715.2 339.702C717.58 342.223 717.549 344.857 716.113 348.342C713.835 347.594 711.722 346.897 709.639 346.21H709.629Z" fill="#FDC500"/>
<path d="M668.735 376.437C671.536 374.602 673.516 373.29 676.399 371.404C676.974 374.633 677.353 376.785 677.753 379.02C674.081 380.475 671.977 378.733 668.735 376.437Z" fill="#FDC500"/>
<path d="M703.812 344.806C700.334 345.493 698.303 345.893 696.179 346.303C694.466 342.695 696.025 340.399 698.005 337.15C699.965 339.733 701.432 341.66 703.822 344.796L703.812 344.806Z" fill="#FDC500"/>
<path d="M671.895 358.571C674.286 358.397 676.676 358.223 680.308 357.956C679.005 361.144 678.174 363.184 676.902 366.3C674.552 363.778 672.931 362.036 671.311 360.283C671.505 359.709 671.7 359.135 671.895 358.561V358.571Z" fill="#FDC500"/>
<path d="M737.031 366.505C735.01 369.036 733.481 371.076 729.839 370.687C729.48 368.657 729.132 366.617 728.772 364.578C732.291 362.784 734.343 364.629 737.031 366.505Z" fill="#FDC500"/>
<path d="M736.077 383.724C732.322 385.323 729.86 386.184 726.618 384.042C727.511 382.084 728.403 380.137 729.727 377.246C732.086 379.645 733.748 381.346 736.077 383.714V383.724Z" fill="#FDC500"/>
<path d="M684.36 392.272C682.042 392.723 679.723 393.174 677.199 393.666C676.194 389.812 677.856 387.844 680.185 385.19C681.949 387.25 683.365 388.91 684.781 390.581C684.637 391.145 684.494 391.709 684.35 392.272H684.36Z" fill="#FDC500"/>
<path d="M697.246 397.213C695.892 401.138 693.686 402.409 690.249 403.772C689.972 400.687 689.757 398.34 689.449 394.988C692.557 395.88 694.671 396.485 697.256 397.223L697.246 397.213Z" fill="#FDC500"/>
<path d="M681.724 345.288C684.894 345.308 687.458 345.718 689.203 349.224C687.561 350.556 685.94 351.868 684.299 353.19C681.046 350.966 681.498 348.26 681.713 345.288H681.724Z" fill="#FDC500"/>
<path d="M708.439 405.976C706.541 403.588 704.981 401.62 702.642 398.668C706.038 398.022 708.172 397.612 710.48 397.172C711.557 400.646 710.696 402.973 708.439 405.976Z" fill="#FDC500"/>
<path d="M599.568 52.4045C597.834 53.5934 596.644 55.0386 595.731 54.8849C594.664 54.7004 593.145 53.1322 593.125 52.138C593.104 51.2258 594.777 49.5756 595.762 49.5243C596.746 49.4731 597.824 51.0003 599.568 52.4147V52.4045Z" fill="#FDC500"/>
<path d="M388.556 209.388C386.627 208.25 384.709 207.256 386.473 204.745C387.499 203.289 388.966 203.095 390.177 204.56C392.136 206.918 390.382 208.076 388.556 209.388Z" fill="#FDC500"/>
<path d="M575.561 29.1583C574.515 28.8918 573.16 28.9328 572.504 28.2768C571.755 27.5286 571.068 25.9399 571.386 25.1097C571.724 24.2282 573.612 23.07 574.217 23.357C575.325 23.8592 576.341 25.2327 576.69 26.4524C576.915 27.2211 575.879 28.3588 575.397 29.3428L575.561 29.1685V29.1583Z" fill="#FDC500"/>
<path d="M620.866 13.0049C618.619 14.2758 617.501 15.3828 616.413 15.3623C615.603 15.352 614.31 13.9581 614.136 13.0151C613.859 11.4982 614.679 9.87873 616.588 10.2375C617.737 10.4527 618.722 11.5699 620.866 13.0049Z" fill="#FDC500"/>
<path d="M584.599 12.0926C582.312 12.1234 579.88 12.6871 580.116 9.46874C580.178 8.63852 581.696 7.22407 582.507 7.25482C585.348 7.37781 585.636 9.2535 584.61 12.0926H584.599Z" fill="#FDC500"/>
<path d="M611.058 44.6045C613.736 44.2253 615.952 43.9895 615.705 47.1157C615.634 47.9971 614.167 49.5038 613.407 49.4628C610.494 49.2988 610.75 47.1259 611.068 44.6148L611.058 44.6045Z" fill="#FDC500"/>
<path d="M405.063 208.783C406.263 210.71 407.228 211.602 407.341 212.586C407.556 214.38 406.161 215.364 404.581 215.036C403.709 214.851 402.426 213.447 402.498 212.699C402.59 211.633 403.75 210.649 405.053 208.783H405.063Z" fill="#FDC500"/>
<path d="M599.773 7.40856C597.721 5.72762 596.1 4.37467 598.378 2.1915C599.711 0.91029 601.127 0.961539 602.143 2.51948C603.805 5.06139 601.917 6.12736 599.773 7.40856Z" fill="#FDC500"/>
<path d="M406.356 247.763C403.678 247.476 403.021 246.143 403.432 244.585C403.637 243.817 404.806 242.874 405.627 242.771C407.412 242.556 408.49 243.776 408.12 245.497C407.905 246.461 406.797 247.23 406.356 247.773V247.763Z" fill="#FDC500"/>
<path d="M622.015 26.9136C623.236 28.2768 624.744 29.2915 624.61 29.968C624.385 31.1057 623.102 32.0282 622.261 33.0429C621.245 32.2024 619.501 31.4235 619.399 30.4908C619.306 29.5375 620.835 28.4203 622.005 26.9136H622.015Z" fill="#FDC500"/>
<path d="M377.024 245.764C375.157 247.148 374.203 248.347 373.136 248.46C372.398 248.531 371.023 247.209 370.797 246.297C370.376 244.637 371.505 243.407 373.249 243.591C374.224 243.694 375.116 244.616 377.035 245.754L377.024 245.764Z" fill="#FDC500"/>
<path d="M415.497 228.76C414.122 229.836 413.055 231.25 412.326 231.097C411.198 230.851 410.295 229.539 409.3 228.678C410.326 227.837 411.249 226.536 412.398 226.31C413.116 226.167 414.153 227.632 415.497 228.76Z" fill="#FDC500"/>
<path d="M389.53 249.403C391.49 250.428 393.347 251.453 391.572 253.953C390.526 255.419 389.048 255.522 387.868 254.107C385.909 251.75 387.643 250.581 389.53 249.403Z" fill="#FDC500"/>
<path d="M581.727 41.4374C581.819 44.092 581.768 46.2547 578.782 45.9267C578.064 45.8447 576.926 44.4815 576.956 43.7435C577.09 40.7711 579.213 41.0581 581.727 41.4271V41.4374Z" fill="#FDC500"/>
<path d="M365.903 233.454C364.724 231.865 363.287 230.676 363.503 230.061C363.882 228.985 365.165 227.796 366.262 227.561C366.888 227.427 368.663 229.16 368.571 229.877C368.437 230.974 367.124 231.927 365.893 233.464L365.903 233.454Z" fill="#FDC500"/>
<path d="M372.398 209.89C373.506 211.684 374.429 212.576 374.614 213.611C374.911 215.22 373.69 216.173 372.254 215.733C371.31 215.435 370.12 214.246 370.028 213.355C369.946 212.535 371.177 211.571 372.398 209.89Z" fill="#FDC500"/>
<path d="M828.369 301.102C827.856 301.614 827.343 302.116 826.83 302.629C825.22 303.469 823.65 304.423 821.978 305.14C818.941 306.442 815.945 308.287 812.765 308.697C801.459 310.183 791.815 298.375 795.673 288.187C799.561 277.917 817.063 264.418 830.739 271.48L830.544 271.316C834.289 275.396 834.956 280.315 833.622 285.348C832.216 290.688 830.144 295.854 828.369 301.092V301.102ZM825.199 284.733C825.148 279.25 823.157 277.712 817.884 279.27C812.683 280.797 807.697 282.97 803.86 286.855C801.716 289.028 800.064 291.836 798.771 294.624C798.258 295.731 798.812 298.304 799.746 298.939C803.275 301.368 807.266 303.059 811.739 302.024C818.561 300.446 825.271 291.744 825.199 284.733Z" fill="#FDC500"/>
<path d="M810.405 327.751C809.543 327.597 808.692 327.454 807.83 327.3C804.988 324.84 802.136 322.38 799.294 319.91C799.13 319.418 798.976 318.916 798.812 318.424C799.274 314.928 801.675 315.041 804.209 315.615C810.939 317.163 817.443 316.855 823.629 313.483C824.265 313.135 825.004 312.889 825.722 312.756C828.554 312.253 830.021 313.596 829.518 316.497C829.2 318.29 828.379 320.002 827.784 321.745C827.466 322.442 827.148 323.128 826.83 323.825C825.517 324.42 824.132 324.891 822.901 325.629C819.002 327.987 814.888 328.837 810.426 327.741L810.405 327.751ZM813.78 320.474C813.042 321.007 812.303 321.355 812.334 321.529C812.457 322.103 812.826 322.657 813.237 323.097C813.319 323.179 814.355 322.698 814.365 322.431C814.396 321.878 814.057 321.294 813.78 320.463V320.474Z" fill="#FDC500"/>
<path d="M399.02 234.1C397.933 235.145 396.856 236.201 395.768 237.246C390.721 240.598 385.858 239.501 381.046 236.673L381.251 236.888C378.984 232.491 378.184 227.981 380.123 223.235L379.948 223.471C380.974 222.723 382 221.964 383.036 221.226C386.33 218.879 389.879 218.531 393.46 220.314C397.245 222.21 399.113 225.439 399.133 229.682C399.133 231.148 399.061 232.614 399.02 234.079V234.1Z" fill="#FDC500"/>
<path d="M756.134 65.7803C755.754 61.0244 755.416 56.8426 755.087 52.712C759.868 54.8746 760.494 60.2762 756.134 65.7803Z" fill="#FDC500"/>
<path d="M701.524 386.738C701.524 386.738 700.755 386.778 700.436 386.44C698.2 384.124 694.066 383.745 692.691 381.725C690.311 378.241 689.798 373.485 688.505 369.262C690.834 366.874 692.445 364.086 693.06 360.775C697.277 359.494 701.503 358.203 705.72 356.911C708.254 359.391 712.696 359.781 714.389 362.149C716.718 365.398 718.031 370.184 717.754 374.182C717.58 376.806 713.999 379.266 713.589 382.699C713.538 383.109 712.871 383.642 712.399 383.775C708.941 384.77 705.453 385.672 701.514 386.717L701.524 386.738ZM708.5 371.937C708.49 368.944 706.048 366.515 703.196 366.669C700.58 366.812 698.364 369.129 698.282 371.824C698.179 374.776 700.642 377.175 703.607 377.011C706.356 376.867 708.521 374.622 708.5 371.927V371.937Z" fill="#FDC500"/>
<path d="M587.605 28.0616C587.893 21.7171 592.273 17.4532 598.203 17.7504C604.369 18.0579 608.627 22.619 608.36 28.6253C608.093 34.6111 603.343 39.0185 597.352 38.8135C591.873 38.629 587.359 33.6579 587.605 28.0616Z" fill="#FDC500"/>
<path fill-rule="evenodd" clip-rule="evenodd" d="M434.073 512.121H969.158V519.256C978.089 524.214 984.839 533.805 987.225 545.433C992.225 550.74 1001.15 552.248 1014.28 554.467L1014.31 554.472C1014.85 554.562 1015.39 554.654 1015.94 554.747H1015.77C1015.23 554.839 1014.69 554.931 1014.15 555.021L1014.12 555.026C1001.17 557.214 992.31 558.712 987.272 563.844C984.929 575.576 978.148 585.262 969.158 590.253V599.118H434.073V590.258C425.078 585.268 418.294 575.578 415.95 563.841C410.912 558.711 402.05 557.214 389.104 555.026L389.091 555.024C388.551 554.933 388.004 554.84 387.45 554.747H387.288C387.842 554.653 388.389 554.56 388.929 554.469L388.943 554.467C402.069 552.249 410.997 550.74 415.997 545.435C418.384 533.803 425.137 524.208 434.073 519.251V512.121ZM449.844 549.356H473.063V545.173H438.13V549.356H445.277V558.351C445.253 558.374 445.195 558.444 445.102 558.56C444.521 559.072 444.08 559.455 443.778 559.711V562.291C445.102 561.826 446.462 561.303 447.857 560.722C450.971 559.42 454.399 558.735 458.141 558.665C459.815 558.618 461.128 558.816 462.081 559.258C463.057 559.699 464.056 560.571 465.079 561.872V565.08C463.057 563.546 460.384 562.779 457.06 562.779C451.575 562.779 446.985 564.627 443.289 568.322C441.384 570.228 440.431 572.145 440.431 574.074C440.431 575.794 441.035 577.352 442.244 578.746C444.73 581.628 448.263 583.069 452.842 583.069C456.166 583.069 459.083 582.477 461.593 581.291C462.383 580.919 463.394 580.373 464.626 579.653C464.928 579.862 465.079 580.338 465.079 581.082C468.286 582.407 470.134 583.162 470.622 583.348V569.926C470.622 563.999 470.123 560.059 469.123 558.107C467.636 555.179 464.277 553.714 459.048 553.714C457.793 553.714 456.526 553.83 455.248 554.063C452.288 554.599 450.593 554.949 450.163 555.112C450.15 555.1 450.136 555.088 450.123 555.074C450.03 554.981 449.937 554.934 449.844 554.934V549.356ZM461.418 568.671C463.859 569.484 465.079 570.402 465.079 571.425C465.079 572.424 463.522 573.865 460.407 575.748C456.828 577.909 452.877 578.99 448.554 578.99C445.207 578.99 443.289 578.142 442.801 576.445C442.801 575.539 443.394 574.377 444.579 572.959C447.531 569.426 451.459 567.66 456.363 567.66C457.711 567.66 459.396 567.997 461.418 568.671ZM491.784 549.356H525.567H527.031H532.714V558.351C532.691 558.374 532.633 558.444 532.54 558.56C531.959 559.072 531.517 559.455 531.215 559.711V562.291C532.54 561.826 533.899 561.303 535.294 560.722C538.408 559.42 541.837 558.735 545.579 558.665C547.252 558.618 548.565 558.816 549.518 559.258C550.494 559.699 551.494 560.571 552.516 561.872V565.08C550.494 563.546 547.821 562.779 544.498 562.779C539.013 562.779 534.422 564.627 530.727 568.322C528.821 570.228 527.868 572.145 527.868 574.074C527.868 575.794 528.472 577.352 529.681 578.746C532.168 581.628 535.701 583.069 540.279 583.069C543.603 583.069 546.52 582.477 549.03 581.291C549.82 580.919 550.831 580.373 552.063 579.653C552.365 579.862 552.516 580.338 552.516 581.082C555.724 582.407 557.572 583.162 558.06 583.348V569.926C558.06 563.999 557.56 560.059 556.561 558.107C555.073 555.179 551.714 553.714 546.485 553.714C545.23 553.714 543.963 553.83 542.685 554.063C539.725 554.599 538.03 554.949 537.6 555.112C537.587 555.1 537.574 555.088 537.56 555.074C537.467 554.981 537.374 554.934 537.281 554.934V549.356H559.698H560.5H589.541V563.093C586.404 559.676 584.451 557.654 583.684 557.026C581.174 554.911 578.676 553.854 576.189 553.854C572.284 553.854 568.949 555.527 566.183 558.874C563.719 561.849 562.476 564.464 562.452 566.718C562.429 569.182 563.324 571.715 565.137 574.319C566.671 576.527 568.6 578.456 570.924 580.106C573.644 582.035 576.154 583 578.455 583C582.08 583 585.776 580.571 589.541 575.713V580.699L595.886 583.418L595.956 549.356H599.652H600.523H612.725H613.841H619.872V558.351C619.849 558.374 619.791 558.444 619.698 558.56C619.117 559.072 618.675 559.455 618.373 559.711V562.291C619.698 561.826 621.058 561.303 622.452 560.722C625.567 559.42 628.995 558.735 632.737 558.665C634.41 558.618 635.724 558.816 636.677 559.258C637.653 559.699 638.652 560.571 639.675 561.872V565.08C637.653 563.546 634.98 562.779 631.656 562.779C626.171 562.779 621.581 564.627 617.885 568.322C615.979 570.228 615.026 572.145 615.026 574.074C615.026 575.794 615.631 577.352 616.839 578.746C619.326 581.628 622.859 583.069 627.438 583.069C630.761 583.069 633.678 582.477 636.188 581.291C636.979 580.919 637.99 580.373 639.222 579.653C639.524 579.862 639.675 580.338 639.675 581.082C642.882 582.407 644.73 583.162 645.218 583.348V569.926C645.218 563.999 644.718 560.059 643.719 558.107C642.231 555.179 638.873 553.714 633.643 553.714C632.388 553.714 631.122 553.83 629.843 554.063C626.883 554.599 625.188 554.949 624.758 555.112C624.745 555.1 624.732 555.088 624.718 555.074C624.625 554.981 624.532 554.934 624.439 554.934V549.356H647.205H647.659H683.812H684.683H691.098V574.772C691.098 576.05 691.493 577.328 692.284 578.607C694.096 581.558 696.63 583.046 699.884 583.069C705.485 583.092 709.622 580.141 712.295 574.214L705.288 570.205C705.288 577.363 703.556 580.943 700.093 580.943C699.326 580.943 698.675 580.536 698.141 579.722C697.629 578.979 697.374 578.212 697.374 577.421V549.356H715.015V545.173H697.374V537.817L691.098 533.459V545.173H684.683H683.812H647.659H647.205H613.841H612.725H600.523H599.652H595.956C595.956 533.9 592.958 524.952 586.961 518.328H580.302C580.163 518.421 580.093 518.607 580.093 518.886C580.093 519.211 580.14 519.397 580.233 519.444C584.416 525.022 587.112 529.833 588.321 533.877C589.135 536.596 589.541 540.362 589.541 545.173H560.5H559.698H527.031H525.567H491.784V549.356ZM521.662 566.509C523.312 564.789 524.138 563.244 524.138 561.872C524.138 560.269 523.568 558.839 522.429 557.584C520.082 555.004 517.223 553.714 513.853 553.714C512.226 553.714 510.645 553.982 509.111 554.516C505.974 555.609 503.905 556.654 502.906 557.654V555.004H496.142V580.803L502.836 584.289V569.507C502.836 565.277 504.916 561.419 509.077 557.933C511.122 556.213 513.039 555.353 514.829 555.353C515.689 555.353 516.561 555.609 517.444 556.12C518.466 556.678 518.978 557.352 518.978 558.142C518.978 559.629 518.164 560.954 516.537 562.116C515.12 563.139 513.62 563.72 512.04 563.86L517.269 569.786C518.803 569.066 520.268 567.973 521.662 566.509ZM548.856 568.671C551.296 569.484 552.516 570.402 552.516 571.425C552.516 572.424 550.959 573.865 547.845 575.748C544.265 577.909 540.314 578.99 535.991 578.99C532.644 578.99 530.727 578.142 530.239 576.445C530.239 575.539 530.831 574.377 532.017 572.959C534.968 569.426 538.896 567.66 543.801 567.66C545.149 567.66 546.834 567.997 548.856 568.671ZM584.904 560.548C586.88 561.849 587.868 563.406 587.868 565.219C587.868 566.823 586.996 568.81 585.253 571.181C583.835 573.11 582.301 574.737 580.651 576.062C578.28 577.968 576.049 578.92 573.957 578.92C571.935 578.92 570.297 578.049 569.042 576.306C567.903 574.749 567.333 572.912 567.333 570.797C567.333 566.939 569.611 563.592 574.167 560.757C576.258 559.455 578.001 558.804 579.396 558.804C581.302 558.804 583.138 559.385 584.904 560.548ZM610.982 541.652C611.424 541.652 611.691 541.605 611.784 541.512C611.784 540.931 611.761 540.431 611.714 540.013C611.25 539.13 610.68 537.561 610.006 535.306C609.286 532.912 608.751 531.425 608.402 530.844C607.775 529.775 606.543 528.833 604.707 528.02C603.591 527.532 602.139 527.009 600.349 526.451H598.989V527.253C599.989 529.461 600.663 531.1 601.011 532.169C601.383 532.796 602.359 533.377 603.94 533.912C605.544 534.423 606.81 535.411 607.74 536.875L610.006 541.512C610.285 541.605 610.61 541.652 610.982 541.652ZM604.01 580.559L609.867 583.801V553.645H604.01V580.559ZM636.014 568.671C638.455 569.484 639.675 570.402 639.675 571.425C639.675 572.424 638.118 573.865 635.003 575.748C631.424 577.909 627.473 578.99 623.15 578.99C619.803 578.99 617.885 578.142 617.397 576.445C617.397 575.539 617.99 574.377 619.175 572.959C622.127 569.426 626.055 567.66 630.959 567.66C632.307 567.66 633.992 567.997 636.014 568.671ZM669.274 556.294C674.55 556.294 677.188 559.083 677.188 564.661C677.188 568.799 676.154 572.099 674.085 574.563C672.621 576.306 670.843 578.212 668.751 580.28L675.479 584.499C679.942 579.641 682.173 574.574 682.173 569.298C682.173 565.091 680.895 561.477 678.338 558.456C675.619 555.248 672.191 553.645 668.054 553.645C665.009 553.645 662.115 554.679 659.373 556.747L656.27 559.083V554.934H650.273V581.152L655.991 584.15V574.005C655.991 569.914 657.153 566.056 659.477 562.43C662.104 558.339 665.369 556.294 669.274 556.294ZM733.388 549.356H767.554H768.634H789.901V555.004C785.787 555.004 782.08 555.481 778.78 556.434C774.433 557.689 772.26 559.757 772.26 562.639C772.26 563.964 772.946 565.022 774.317 565.812L776.618 567.137C774.526 568.136 773.027 569.019 772.121 569.786C770.633 571.041 769.889 572.517 769.889 574.214C769.889 575.957 770.947 577.503 773.062 578.851C777.408 581.617 782.568 583 788.541 583C794.003 583 798.733 581.733 802.731 579.199V570.379C798.059 577.073 791.946 580.42 784.393 580.42C782.649 580.42 781.023 580.083 779.512 579.409C777.583 578.549 776.618 577.363 776.618 575.853C776.618 573.133 779.396 571.529 784.95 571.041C785.741 570.972 787.716 570.89 790.877 570.797V567.59L788.785 567.694C787.391 567.764 786.636 567.799 786.519 567.799C781.197 567.799 778.559 566.869 778.605 565.01C778.629 563.244 779.988 561.884 782.684 560.931C784.706 560.21 786.798 559.85 788.96 559.85C791.958 559.85 794.84 560.327 797.606 561.28V557.166C797.118 556.794 796.328 556.48 795.235 556.224V549.356H803.742H804.753H837.629V556.155L826.996 575.364C826.02 577.131 825.171 578.014 824.451 578.014C823.149 577.689 822.498 575.69 822.498 572.018C822.498 571.111 822.591 569.751 822.777 567.939C822.986 566.126 823.091 564.766 823.091 563.86C823.091 557.073 819.942 553.714 813.643 553.784C812.504 553.784 811.574 553.865 810.854 554.028C809.39 554.33 807.891 555.132 806.357 556.434L810.854 560.513C812.016 559.165 812.771 558.339 813.12 558.037C814.073 557.201 815.061 556.782 816.083 556.782C817.455 556.782 818.14 557.189 818.14 558.002C818.14 558.444 817.815 559.106 817.164 559.99C815.723 561.919 815.003 563.999 815.003 566.23C815.003 570.6 816.839 574.574 820.511 578.154C823.858 581.431 826.566 583.069 828.634 583.069L841.011 561.314C842.545 558.618 843.521 556.852 843.939 556.015V549.356H847.495L847.565 545.173H804.753H803.742H768.634H767.554H733.388V549.356ZM763.265 566.509C764.916 564.789 765.741 563.244 765.741 561.872C765.741 560.269 765.171 558.839 764.032 557.584C761.685 555.004 758.826 553.714 755.456 553.714C753.829 553.714 752.249 553.982 750.715 554.516C747.577 555.609 745.508 556.654 744.509 557.654V555.004H737.745V580.803L744.439 584.289V569.507C744.439 565.277 746.519 561.419 750.68 557.933C752.725 556.213 754.643 555.353 756.432 555.353C757.292 555.353 758.164 555.609 759.047 556.12C760.07 556.678 760.581 557.352 760.581 558.142C760.581 559.629 759.767 560.954 758.141 562.116C756.723 563.139 755.224 563.72 753.643 563.86L758.873 569.786C760.407 569.066 761.871 567.973 763.265 566.509ZM875.909 549.356H884.625H885.427H918.93H919.872H932.388H933.12H954.735V555.004C950.621 555.004 946.914 555.481 943.614 556.434C939.267 557.689 937.094 559.757 937.094 562.639C937.094 563.964 937.78 565.022 939.151 565.812L941.452 567.137C939.36 568.136 937.861 569.019 936.955 569.786C935.467 571.041 934.724 572.517 934.724 574.214C934.724 575.957 935.781 577.503 937.896 578.851C942.242 581.617 947.402 583 953.375 583C958.837 583 963.567 581.733 967.565 579.199V570.379C962.893 577.073 956.78 580.42 949.227 580.42C947.483 580.42 945.857 580.083 944.346 579.409C942.417 578.549 941.452 577.363 941.452 575.853C941.452 573.133 944.23 571.529 949.784 571.041C950.575 570.972 952.55 570.89 955.711 570.797V567.59L953.619 567.694C952.225 567.764 951.47 567.799 951.353 567.799C946.031 567.799 943.393 566.869 943.439 565.01C943.463 563.244 944.822 561.884 947.518 560.931C949.54 560.21 951.632 559.85 953.794 559.85C956.792 559.85 959.674 560.327 962.44 561.28V557.166C961.952 556.794 961.162 556.48 960.069 556.224V549.356H969.587V545.173H933.12H932.388H919.872H918.93H885.427H884.625H848.227V549.356H870.575V555.004C866.461 555.004 862.754 555.481 859.453 556.434C855.107 557.689 852.934 559.757 852.934 562.639C852.934 563.964 853.62 565.022 854.991 565.812L857.292 567.137C855.2 568.136 853.701 569.019 852.795 569.786C851.307 571.041 850.563 572.517 850.563 574.214C850.563 575.957 851.621 577.503 853.736 578.851C858.082 581.617 863.242 583 869.215 583C874.677 583 879.407 581.733 883.405 579.199V570.379C878.733 577.073 872.62 580.42 865.066 580.42C863.323 580.42 861.696 580.083 860.186 579.409C858.257 578.549 857.292 577.363 857.292 575.853C857.292 573.133 860.069 571.529 865.624 571.041C866.415 570.972 868.39 570.89 871.551 570.797V567.59L869.459 567.694C868.065 567.764 867.309 567.799 867.193 567.799C861.871 567.799 859.233 566.869 859.279 565.01C859.302 563.244 860.662 561.884 863.358 560.931C865.38 560.21 867.472 559.85 869.634 559.85C872.632 559.85 875.514 560.327 878.28 561.28V557.166C877.792 556.794 877.001 556.48 875.909 556.224V549.356ZM914.503 566.509C916.153 564.789 916.978 563.244 916.978 561.872C916.978 560.269 916.409 558.839 915.27 557.584C912.922 555.004 910.063 553.714 906.693 553.714C905.066 553.714 903.486 553.982 901.952 554.516C898.814 555.609 896.746 556.654 895.746 557.654V555.004H888.983V580.803L895.677 584.289V569.507C895.677 565.277 897.757 561.419 901.917 557.933C903.962 556.213 905.88 555.353 907.67 555.353C908.529 555.353 909.401 555.609 910.284 556.12C911.307 556.678 911.818 557.352 911.818 558.142C911.818 559.629 911.005 560.954 909.378 562.116C907.96 563.139 906.461 563.72 904.88 563.86L910.11 569.786C911.644 569.066 913.108 567.973 914.503 566.509ZM930.261 541.652C930.703 541.652 930.97 541.605 931.063 541.512C931.063 540.931 931.04 540.431 930.993 540.013C930.528 539.13 929.959 537.561 929.285 535.306C928.564 532.912 928.03 531.425 927.681 530.844C927.054 529.775 925.822 528.833 923.986 528.02C922.87 527.532 921.417 527.009 919.628 526.451H918.268V527.253C919.267 529.461 919.941 531.1 920.29 532.169C920.662 532.796 921.638 533.377 923.219 533.912C924.822 534.423 926.089 535.411 927.019 536.875L929.285 541.512C929.564 541.605 929.889 541.652 930.261 541.652ZM923.288 580.559L929.145 583.801V553.645H923.288V580.559Z" fill="#FDC500"/>
</svg>
